<?xml version="1.0" encoding="UTF-8" standalone="no"?>
<!-- Created with Inkscape (http://www.inkscape.org/) -->

<svg
   xmlns:dc="http://purl.org/dc/elements/1.1/"
   xmlns:cc="http://creativecommons.org/ns#"
   xmlns:rdf="http://www.w3.org/1999/02/22-rdf-syntax-ns#"
   xmlns:svg="http://www.w3.org/2000/svg"
   xmlns="http://www.w3.org/2000/svg"
   xmlns:xlink="http://www.w3.org/1999/xlink"
   version="1.1"
   width="512"
   height="512"
   id="svg2">
  <defs
     id="defs4" />
  <metadata
     id="metadata7">
    <rdf:RDF>
      <cc:Work
         rdf:about="">
        <dc:format>image/svg+xml</dc:format>
        <dc:type
           rdf:resource="http://purl.org/dc/dcmitype/StillImage" />
        <dc:title></dc:title>
      </cc:Work>
    </rdf:RDF>
  </metadata>
  <g
     id="layer7" />
  <g
     transform="translate(0,-540.36218)"
     id="g3905"
     style="display:none">
    <path
       d="m 327.77159,290.78806 a 114.38832,46.983547 0 1 1 -228.776641,0 114.38832,46.983547 0 1 1 228.776641,0 z"
       transform="matrix(1.0274958,1.0274958,-0.84146584,0.84146584,258.90275,346.9586)"
       id="path3907"
       style="fill:none;stroke:#ff2a2a;stroke-opacity:1" />
    <path
       d="m 327.77159,290.78806 a 114.38832,46.983547 0 1 1 -228.776641,0 114.38832,46.983547 0 1 1 228.776641,0 z"
       transform="matrix(1.0274958,1.0274958,-0.84146584,0.84146584,304.83285,301.8186)"
       id="path3909"
       style="fill:none;stroke:#ff2a2a;stroke-opacity:1" />
    <path
       d="m 327.77159,290.78806 a 114.38832,46.983547 0 1 1 -228.776641,0 114.38832,46.983547 0 1 1 228.776641,0 z"
       transform="matrix(1.0274958,1.0274958,-0.84146584,0.84146584,312.83285,293.8186)"
       id="path3911"
       style="fill:none;stroke:#ff2a2a;stroke-opacity:1" />
  </g>
  <g
     id="layer3"
     style="display:inline">
    <path
       d="m 256.00001,480 c -36.736,0 -175.621697,-80.18569 -193.989697,-111.99999 -18.368001,-31.81431 -18.368006,-192.1857 -6e-6,-224 C 80.378306,112.1857 219.26399,32.000001 255.99999,32 c 36.736,-1e-6 175.6217,80.18569 193.9897,111.99999 18.368,31.81431 18.368,192.1857 0,224 C 431.62169,399.8143 292.73601,480 256.00001,480 z"
       id="path2993"
       style="fill:#1c5280;fill-opacity:1;stroke:none" />
  </g>
  <g
     transform="translate(0,-540.36218)"
     id="layer1"
     style="display:inline">
    <path
       d="M 145.75,123.625 115.9375,153 c -21.8346,21.8346 13.08804,92.15054 78,157.0625 1.00641,1.00641 2.02244,1.97686 3.03125,2.96875 -20.53829,13.42152 -39.59063,22.55117 -55.21875,26.375 l -11.0625,17.9375 31.1875,30.71875 c 14.81442,14.81442 51.94244,3.48659 94.5625,-25.59375 42.61104,29.06947 79.75057,40.40568 94.5625,25.59375 l 31.1875,-30.71875 -11.0625,-17.9375 c -15.62812,-3.82383 -34.68046,-12.95348 -55.21875,-26.375 1.00881,-0.99189 2.02484,-1.96234 3.03125,-2.96875 64.91196,-64.91196 99.8346,-135.2279 78,-157.0625 l -29.8125,-29.375 -20.4375,13.0625 c -8.96883,32.06864 -38.77952,77.34202 -81.6875,120.25 -2.84167,2.84167 -5.70473,5.61931 -8.5625,8.34375 -2.863,-2.72919 -5.71566,-5.49691 -8.5625,-8.34375 -42.90798,-42.90798 -72.71867,-88.18136 -81.6875,-120.25 L 145.75,123.625 z"
       transform="translate(0,540.36218)"
       id="path3866"
       style="fill:#0e2944;fill-opacity:1;stroke:none" />
  </g>
  <g
     id="layer6">
    <path
       d="m 256.00001,480 c -25.536,0 -181.221697,-89.88517 -193.989697,-111.99999 -12.768001,-22.11483 -12.768006,-201.88518 -6e-6,-224 C 74.778306,121.88518 230.46399,32.000001 255.99999,32 c 25.536,-1e-6 181.2217,89.88517 193.9897,111.99999 12.768,22.11483 12.768,201.88518 0,224 C 437.22169,390.11482 281.53601,480 256.00001,480 z"
       transform="matrix(0.53717655,0,0,0.53717655,118.4828,118.4828)"
       id="path3963"
       style="fill:#cb3837;fill-opacity:1;stroke:none;display:inline" />
  </g>
  <g
     id="layer4"
     style="display:inline">
    <path
       d="m 180.71875,101.34375 c -7.9846,-0.024 -14.4086,2.0961 -18.84375,6.53125 L 115.9375,153 c 14.18875,-14.18875 48.86963,-4.40005 89.21875,22 -3.75319,3.52483 -7.49104,7.14729 -11.21875,10.875 -64.91197,64.91198 -99.83461,135.22789 -78,157.0625 l 45.9375,45.125 c -21.83461,-21.83461 13.08803,-92.15053 78,-157.0625 5.49737,-5.49737 11.02027,-10.7616 16.5625,-15.8125 5.54223,5.0509 11.06513,10.31513 16.5625,15.8125 64.91197,64.91197 99.83461,135.22789 78,157.0625 l 45.9375,-45.125 c 21.83461,-21.83461 -13.08803,-92.15052 -78,-157.0625 -3.72771,-3.72771 -7.46556,-7.35017 -11.21875,-10.875 40.34912,-26.40005 75.03,-36.18875 89.21875,-22 L 351,107.875 c -14.81193,-14.811929 -51.94966,-3.50652 -94.5625,25.5625 -29.86169,-20.37393 -57.03296,-32.03761 -75.71875,-32.09375 z"
       id="path3915"
       style="fill:#ffffff;stroke:none;display:inline" />
  </g>
  <g
     id="layer5"
     style="display:none">
    <image
       xlink:href="file:///Users/pier/Downloads/TitaniumSDK.png"
       x="88.893425"
       y="88.893433"
       width="334.21317"
       height="334.21317"
       id="image3057"
       style="display:inline" />
  </g>
</svg>
